<svg width="100%" height="100%" id="buerokratt-icon" fill="#fff" xmlns="http://www.w3.org/2000/svg"
     viewBox="0 0 46.08 40.96">
    <title>Bürokrati logo</title>
    <path id="Path_17"
          d="M921.12,695.458a1.28,1.28,0,0,1,0-2.56c11.1,0,20.48-4.683,20.48-10.228a1.28,1.28,0,0,1,2.56,0C944.16,689.841,934.04,695.458,921.12,695.458Z"
          transform="translate(-898.08 -669.858)"/>
    <path id="Path_18"
          d="M952.405,335.1a1.28,1.28,0,0,1-1.28-1.28c0-5.652-9.045-10.252-20.165-10.252a1.28,1.28,0,0,1,0-2.56c12.743,0,22.725,5.628,22.725,12.812A1.28,1.28,0,0,1,952.405,335.1Z"
          transform="translate(-907.605 -321.01)"/>
    <path id="Path_19"
          d="M241.12,338.92a1.28,1.28,0,0,1-1.28-1.28c0-9.33,10.258-16.64,23.355-16.64a1.28,1.28,0,1,1,0,2.56c-11.467,0-20.795,6.317-20.795,14.08A1.28,1.28,0,0,1,241.12,338.92Z"
          transform="translate(-239.84 -321)"/>
    <path id="Path_20"
          d="M241.12,578.933a1.28,1.28,0,0,1-1.28-1.28c0-9.337,10.309-16.653,23.468-16.653a1.28,1.28,0,1,1,0,2.56c-11.526,0-20.908,6.323-20.908,14.093A1.28,1.28,0,0,1,241.12,578.933Z"
          transform="translate(-239.84 -553.32)"/>
    <path id="Path_21"
          d="M263.308,818.92c-12.94,0-23.468-7.465-23.468-16.64a1.28,1.28,0,0,1,2.56,0c0,7.633,9.575,14.08,20.908,14.08a1.28,1.28,0,0,1,0,2.56Z"
          transform="translate(-239.84 -785.64)"/>
    <path id="Path_22"
          d="M955.813,575.07a1.28,1.28,0,0,1-1.28-1.28c0-5.64-8.995-10.23-20.052-10.23a1.28,1.28,0,1,1,0-2.56c12.68,0,22.613,5.618,22.613,12.79A1.28,1.28,0,0,1,955.813,575.07Z"
          transform="translate(-911.013 -553.32)"/>
    <path id="Path_23"
          d="M262.88,1058.92c-12.7,0-23.04-7.465-23.04-16.64a1.28,1.28,0,1,1,2.56,0c0,7.763,9.188,14.08,20.48,14.08a1.28,1.28,0,1,1,0,2.56Z"
          transform="translate(-239.84 -1017.96)"/>
    <path id="Path_24"
          d="M934.48,934.78a1.28,1.28,0,0,1,0-2.56c11.058,0,20.052-4.6,20.052-10.25a1.28,1.28,0,0,1,2.56,0C957.093,929.153,947.16,934.78,934.48,934.78Z"
          transform="translate(-911.013 -901.5)"/>
    <circle id="Ellipse_5" cx="1.6" cy="1.6" r="1.6" transform="translate(18.661 14.72)"/>
    <circle id="Ellipse_6" cx="1.6" cy="1.6" r="1.6" transform="translate(24.421 14.72)"/>
</svg>
